# ProBuilder 4.5.2
# https://unity3d.com/unity/features/worldbuilding/probuilder
# 2023/01/17 16:08:38

mtllib ./Pipe_(1).mtl
o Pipe (1)

g Pipe (1)
v 1 0 1.732051
v 0 0 0
v 1 0.25 1.732051
v 0 0.25 0
v 1.99 0 0
v 1.995 0 0.008660247
v 1.99 0.25 0
v 1.995 0.25 0.008660247
v 3 0 1.732051
v 3 0.25 1.732051
v 2.005 0 0.008660246
v 2.005 0.25 0.008660246
v 4 0 -1.748456E-07
v 4 0.25 -1.748456E-07
v 2.01 0 -8.742269E-10
v 2.01 0.25 -8.742269E-10
v 3 0 -1.732051
v 3 0.25 -1.732051
v 2.005 0 -0.008660247
v 2.005 0.25 -0.008660247
v 1 0 -1.732051
v 1 0.25 -1.732051
v 1.995 0 -0.008660247
v 1.995 0.25 -0.008660247
v 1 0.5 1.732051
v 0 0.5 0
v 1.99 0.5 0
v 1.995 0.5 0.008660247
v 3 0.5 1.732051
v 2.005 0.5 0.008660246
v 4 0.5 -1.748456E-07
v 2.01 0.5 -8.742269E-10
v 3 0.5 -1.732051
v 2.005 0.5 -0.008660247
v 1 0.5 -1.732051
v 1.995 0.5 -0.008660247

vt 2 0
vt 0 0
vt 2 0.25
vt 0 0.25
vt -0.9949999 0
vt -1.005 0
vt -0.9949999 0.25
vt -1.005 0.25
vt 3 0
vt 0.9999999 0
vt 3 0.25
vt 0.9999999 0.25
vt -1.995 0
vt -2.005 0
vt -1.995 0.25
vt -2.005 0.25
vt -2 0
vt -2 0.25
vt 1.005018 0
vt 0.9950179 0
vt 1.005018 0.25
vt 0.9950179 0.25
vt -1 0
vt -3 0
vt -1 0.25
vt -3 0.25
vt 2.005 0
vt 1.995 0
vt 2.005 0.25
vt 1.995 0.25
vt 1.005 0
vt 0.9949999 0
vt 1.005 0.25
vt 0.9949999 0.25
vt 2 0.5
vt 0 0.5
vt -0.9949999 0.5
vt -1.005 0.5
vt 3 0.5
vt 0.9999999 0.5
vt -1.995 0.5
vt -2.005 0.5
vt -2 0.5
vt 1.005018 0.5
vt 0.9950179 0.5
vt -1 0.5
vt -3 0.5
vt 2.005 0.5
vt 1.995 0.5
vt 1.005 0.5
vt 0.9949999 0.5
vt 1 1.732051
vt 1.99 0
vt 1.995 0.008660247
vt -1 1.732051
vt -1.995 0.008660247
vt -1.99 0
vt 3 1.732051
vt 2.005 0.008660246
vt -3 1.732051
vt -2.005 0.008660246
vt 4 -1.748456E-07
vt 2.01 -8.742269E-10
vt -4 -1.748456E-07
vt -2.01 -8.742269E-10
vt 3 -1.732051
vt 2.005 -0.008660247
vt -3 -1.732051
vt -2.005 -0.008660247
vt 1 -1.732051
vt 1.995 -0.008660247
vt -1 -1.732051
vt -1.995 -0.008660247

vn -0.8660254 0 0.5
vn 0.8660254 0 -0.5
vn 5.960464E-08 0 1
vn -9.313123E-08 0 -1
vn 0.8660254 0 0.5
vn -0.8660306 0 -0.499991
vn 0.8660254 0 -0.5000001
vn -0.8660254 0 -0.5000001
vn 0.8660254 0 0.5
vn 0 -1 0
vn 0 1 0

usemtl ProBuilderDefault
f 3/3/1 4/4/1 2/2/1 1/1/1
f 7/7/2 8/8/2 6/6/2 5/5/2
f 10/11/3 3/12/3 1/10/3 9/9/3
f 8/15/4 12/16/4 11/14/4 6/13/4
f 14/3/5 10/4/5 9/2/5 13/1/5
f 12/7/6 16/8/6 15/6/6 11/5/6
f 18/4/7 14/18/7 13/17/7 17/2/7
f 16/21/1 20/22/1 19/20/1 15/19/1
f 22/25/4 18/26/4 17/24/4 21/23/4
f 20/29/3 24/30/3 23/28/3 19/27/3
f 4/4/8 22/18/8 21/17/8 2/2/8
f 24/33/9 7/34/9 5/32/9 23/31/9
f 25/35/1 26/36/1 4/4/1 3/3/1
f 27/37/2 28/38/2 8/8/2 7/7/2
f 29/39/3 25/40/3 3/12/3 10/11/3
f 28/41/4 30/42/4 12/16/4 8/15/4
f 31/35/5 29/36/5 10/4/5 14/3/5
f 30/37/6 32/38/6 16/8/6 12/7/6
f 33/36/7 31/43/7 14/18/7 18/4/7
f 32/44/1 34/45/1 20/22/1 16/21/1
f 35/46/4 33/47/4 18/26/4 22/25/4
f 34/48/3 36/49/3 24/30/3 20/29/3
f 26/36/8 35/43/8 22/18/8 4/4/8
f 36/50/9 27/51/9 7/34/9 24/33/9
f 5/53/10 6/54/10 1/52/10 2/2/10
f 28/56/11 27/57/11 26/2/11 25/55/11
f 6/54/10 11/59/10 9/58/10 1/52/10
f 30/61/11 28/56/11 25/55/11 29/60/11
f 11/59/10 15/63/10 13/62/10 9/58/10
f 32/65/11 30/61/11 29/60/11 31/64/11
f 15/63/10 19/67/10 17/66/10 13/62/10
f 34/69/11 32/65/11 31/64/11 33/68/11
f 19/67/10 23/71/10 21/70/10 17/66/10
f 36/73/11 34/69/11 33/68/11 35/72/11
f 23/71/10 5/53/10 2/2/10 21/70/10
f 27/57/11 36/73/11 35/72/11 26/2/11

